<svg width="418" height="349" viewBox="0 0 418 349" fill="none" xmlns="http://www.w3.org/2000/svg">
<circle cx="139.892" cy="1.91633" r="1.91633" fill="#6E817A"/>
<circle cx="139.892" cy="185.884" r="1.91633" fill="#6E817A"/>
<circle cx="139.892" cy="93.9" r="1.91633" fill="#6E817A"/>
<circle cx="139.892" cy="277.867" r="1.91633" fill="#6E817A"/>
<circle cx="139.892" cy="47.9082" r="1.91633" fill="#6E817A"/>
<circle cx="139.892" cy="231.876" r="1.91633" fill="#6E817A"/>
<circle cx="139.892" cy="139.892" r="1.91633" fill="#6E817A"/>
<circle cx="139.892" cy="323.859" r="1.91633" fill="#6E817A"/>
<circle cx="139.892" cy="24.9122" r="1.91633" fill="#6E817A"/>
<circle cx="139.892" cy="208.88" r="1.91633" fill="#6E817A"/>
<circle cx="139.892" cy="116.896" r="1.91633" fill="#6E817A"/>
<circle cx="139.892" cy="300.863" r="1.91633" fill="#6E817A"/>
<circle cx="139.892" cy="70.9041" r="1.91633" fill="#6E817A"/>
<circle cx="139.892" cy="254.872" r="1.91633" fill="#6E817A"/>
<circle cx="139.892" cy="162.888" r="1.91633" fill="#6E817A"/>
<circle cx="139.892" cy="346.855" r="1.91633" fill="#6E817A"/>
<circle cx="208.879" cy="1.91633" r="1.91633" fill="#6E817A"/>
<circle cx="208.879" cy="185.884" r="1.91633" fill="#6E817A"/>
<circle cx="208.879" cy="93.9" r="1.91633" fill="#6E817A"/>
<circle cx="208.879" cy="277.867" r="1.91633" fill="#6E817A"/>
<circle cx="208.879" cy="47.9082" r="1.91633" fill="#6E817A"/>
<circle cx="208.879" cy="231.876" r="1.91633" fill="#6E817A"/>
<circle cx="208.879" cy="139.892" r="1.91633" fill="#6E817A"/>
<circle cx="208.879" cy="323.859" r="1.91633" fill="#6E817A"/>
<circle cx="208.879" cy="24.9122" r="1.91633" fill="#6E817A"/>
<circle cx="208.879" cy="208.88" r="1.91633" fill="#6E817A"/>
<circle cx="208.879" cy="116.896" r="1.91633" fill="#6E817A"/>
<circle cx="208.879" cy="300.863" r="1.91633" fill="#6E817A"/>
<circle cx="208.879" cy="70.9041" r="1.91633" fill="#6E817A"/>
<circle cx="208.879" cy="254.872" r="1.91633" fill="#6E817A"/>
<circle cx="208.879" cy="162.888" r="1.91633" fill="#6E817A"/>
<circle cx="208.879" cy="346.855" r="1.91633" fill="#6E817A"/>
<circle cx="185.884" cy="1.91633" r="1.91633" fill="#6E817A"/>
<circle cx="185.884" cy="185.884" r="1.91633" fill="#6E817A"/>
<circle cx="185.884" cy="93.9" r="1.91633" fill="#6E817A"/>
<circle cx="185.884" cy="277.867" r="1.91633" fill="#6E817A"/>
<circle cx="185.884" cy="47.9082" r="1.91633" fill="#6E817A"/>
<circle cx="185.884" cy="231.876" r="1.91633" fill="#6E817A"/>
<circle cx="185.884" cy="139.892" r="1.91633" fill="#6E817A"/>
<circle cx="185.884" cy="323.859" r="1.91633" fill="#6E817A"/>
<circle cx="185.884" cy="24.9122" r="1.91633" fill="#6E817A"/>
<circle cx="185.884" cy="208.88" r="1.91633" fill="#6E817A"/>
<circle cx="185.884" cy="116.896" r="1.91633" fill="#6E817A"/>
<circle cx="185.884" cy="300.863" r="1.91633" fill="#6E817A"/>
<circle cx="185.884" cy="70.9041" r="1.91633" fill="#6E817A"/>
<circle cx="185.884" cy="254.872" r="1.91633" fill="#6E817A"/>
<circle cx="185.884" cy="162.888" r="1.91633" fill="#6E817A"/>
<circle cx="185.884" cy="346.855" r="1.91633" fill="#6E817A"/>
<circle cx="254.871" cy="1.91633" r="1.91633" fill="#6E817A"/>
<circle cx="254.871" cy="185.884" r="1.91633" fill="#6E817A"/>
<circle cx="254.871" cy="93.9" r="1.91633" fill="#6E817A"/>
<circle cx="254.871" cy="277.867" r="1.91633" fill="#6E817A"/>
<circle cx="254.871" cy="47.9082" r="1.91633" fill="#6E817A"/>
<circle cx="254.871" cy="231.876" r="1.91633" fill="#6E817A"/>
<circle cx="254.871" cy="139.892" r="1.91633" fill="#6E817A"/>
<circle cx="254.871" cy="323.859" r="1.91633" fill="#6E817A"/>
<circle cx="254.871" cy="24.9122" r="1.91633" fill="#6E817A"/>
<circle cx="254.871" cy="208.88" r="1.91633" fill="#6E817A"/>
<circle cx="254.871" cy="116.896" r="1.91633" fill="#6E817A"/>
<circle cx="254.871" cy="300.863" r="1.91633" fill="#6E817A"/>
<circle cx="254.871" cy="70.9041" r="1.91633" fill="#6E817A"/>
<circle cx="254.871" cy="254.872" r="1.91633" fill="#6E817A"/>
<circle cx="254.871" cy="162.888" r="1.91633" fill="#6E817A"/>
<circle cx="254.871" cy="346.855" r="1.91633" fill="#6E817A"/>
<circle cx="277.867" cy="1.91633" r="1.91633" fill="#6E817A"/>
<circle cx="277.867" cy="185.884" r="1.91633" fill="#6E817A"/>
<circle cx="277.867" cy="93.9" r="1.91633" fill="#6E817A"/>
<circle cx="277.867" cy="277.867" r="1.91633" fill="#6E817A"/>
<circle cx="277.867" cy="47.9082" r="1.91633" fill="#6E817A"/>
<circle cx="277.867" cy="231.876" r="1.91633" fill="#6E817A"/>
<circle cx="277.867" cy="139.892" r="1.91633" fill="#6E817A"/>
<circle cx="277.867" cy="323.859" r="1.91633" fill="#6E817A"/>
<circle cx="277.867" cy="24.9122" r="1.91633" fill="#6E817A"/>
<circle cx="277.867" cy="208.88" r="1.91633" fill="#6E817A"/>
<circle cx="277.867" cy="116.896" r="1.91633" fill="#6E817A"/>
<circle cx="277.867" cy="300.863" r="1.91633" fill="#6E817A"/>
<circle cx="277.867" cy="70.9041" r="1.91633" fill="#6E817A"/>
<circle cx="277.867" cy="254.872" r="1.91633" fill="#6E817A"/>
<circle cx="277.867" cy="162.888" r="1.91633" fill="#6E817A"/>
<circle cx="277.867" cy="346.855" r="1.91633" fill="#6E817A"/>
<circle cx="162.888" cy="1.91633" r="1.91633" fill="#6E817A"/>
<circle cx="162.888" cy="185.884" r="1.91633" fill="#6E817A"/>
<circle cx="162.888" cy="93.9" r="1.91633" fill="#6E817A"/>
<circle cx="162.888" cy="277.867" r="1.91633" fill="#6E817A"/>
<circle cx="162.888" cy="47.9082" r="1.91633" fill="#6E817A"/>
<circle cx="162.888" cy="231.876" r="1.91633" fill="#6E817A"/>
<circle cx="162.888" cy="139.892" r="1.91633" fill="#6E817A"/>
<circle cx="162.888" cy="323.859" r="1.91633" fill="#6E817A"/>
<circle cx="162.888" cy="24.9122" r="1.91633" fill="#6E817A"/>
<circle cx="162.888" cy="208.88" r="1.91633" fill="#6E817A"/>
<circle cx="162.888" cy="116.896" r="1.91633" fill="#6E817A"/>
<circle cx="162.888" cy="300.863" r="1.91633" fill="#6E817A"/>
<circle cx="162.888" cy="70.9041" r="1.91633" fill="#6E817A"/>
<circle cx="162.888" cy="254.872" r="1.91633" fill="#6E817A"/>
<circle cx="162.888" cy="162.888" r="1.91633" fill="#6E817A"/>
<circle cx="162.888" cy="346.855" r="1.91633" fill="#6E817A"/>
<circle cx="231.875" cy="1.91633" r="1.91633" fill="#6E817A"/>
<circle cx="231.875" cy="185.884" r="1.91633" fill="#6E817A"/>
<circle cx="231.875" cy="93.9" r="1.91633" fill="#6E817A"/>
<circle cx="231.875" cy="277.867" r="1.91633" fill="#6E817A"/>
<circle cx="231.875" cy="47.9082" r="1.91633" fill="#6E817A"/>
<circle cx="231.875" cy="231.876" r="1.91633" fill="#6E817A"/>
<circle cx="231.875" cy="139.892" r="1.91633" fill="#6E817A"/>
<circle cx="231.875" cy="323.859" r="1.91633" fill="#6E817A"/>
<circle cx="231.875" cy="24.9122" r="1.91633" fill="#6E817A"/>
<circle cx="231.875" cy="208.88" r="1.91633" fill="#6E817A"/>
<circle cx="231.875" cy="116.896" r="1.91633" fill="#6E817A"/>
<circle cx="231.875" cy="300.863" r="1.91633" fill="#6E817A"/>
<circle cx="231.875" cy="70.9041" r="1.91633" fill="#6E817A"/>
<circle cx="231.875" cy="254.872" r="1.91633" fill="#6E817A"/>
<circle cx="231.875" cy="162.888" r="1.91633" fill="#6E817A"/>
<circle cx="231.875" cy="346.855" r="1.91633" fill="#6E817A"/>
<circle cx="346.855" cy="1.91633" r="1.91633" fill="#6E817A"/>
<circle cx="346.855" cy="185.884" r="1.91633" fill="#6E817A"/>
<circle cx="346.855" cy="93.9" r="1.91633" fill="#6E817A"/>
<circle cx="346.855" cy="277.867" r="1.91633" fill="#6E817A"/>
<circle cx="346.855" cy="47.9082" r="1.91633" fill="#6E817A"/>
<circle cx="346.855" cy="231.876" r="1.91633" fill="#6E817A"/>
<circle cx="346.855" cy="139.892" r="1.91633" fill="#6E817A"/>
<circle cx="346.855" cy="323.859" r="1.91633" fill="#6E817A"/>
<circle cx="346.855" cy="24.9122" r="1.91633" fill="#6E817A"/>
<circle cx="346.855" cy="208.88" r="1.91633" fill="#6E817A"/>
<circle cx="346.855" cy="116.896" r="1.91633" fill="#6E817A"/>
<circle cx="346.855" cy="300.863" r="1.91633" fill="#6E817A"/>
<circle cx="346.855" cy="70.9041" r="1.91633" fill="#6E817A"/>
<circle cx="346.855" cy="254.872" r="1.91633" fill="#6E817A"/>
<circle cx="346.855" cy="162.888" r="1.91633" fill="#6E817A"/>
<circle cx="346.855" cy="346.855" r="1.91633" fill="#6E817A"/>
<circle cx="323.86" cy="1.91633" r="1.91633" fill="#6E817A"/>
<circle cx="323.86" cy="185.884" r="1.91633" fill="#6E817A"/>
<circle cx="323.86" cy="93.9" r="1.91633" fill="#6E817A"/>
<circle cx="323.86" cy="277.867" r="1.91633" fill="#6E817A"/>
<circle cx="323.86" cy="47.9082" r="1.91633" fill="#6E817A"/>
<circle cx="323.86" cy="231.876" r="1.91633" fill="#6E817A"/>
<circle cx="323.86" cy="139.892" r="1.91633" fill="#6E817A"/>
<circle cx="323.86" cy="323.859" r="1.91633" fill="#6E817A"/>
<circle cx="323.86" cy="24.9122" r="1.91633" fill="#6E817A"/>
<circle cx="323.86" cy="208.88" r="1.91633" fill="#6E817A"/>
<circle cx="323.86" cy="116.896" r="1.91633" fill="#6E817A"/>
<circle cx="323.86" cy="300.863" r="1.91633" fill="#6E817A"/>
<circle cx="323.86" cy="70.9041" r="1.91633" fill="#6E817A"/>
<circle cx="323.86" cy="254.872" r="1.91633" fill="#6E817A"/>
<circle cx="323.86" cy="162.888" r="1.91633" fill="#6E817A"/>
<circle cx="323.86" cy="346.855" r="1.91633" fill="#6E817A"/>
<circle cx="392.847" cy="1.91633" r="1.91633" fill="#6E817A"/>
<circle cx="392.847" cy="185.884" r="1.91633" fill="#6E817A"/>
<circle cx="392.847" cy="93.9" r="1.91633" fill="#6E817A"/>
<circle cx="392.847" cy="277.867" r="1.91633" fill="#6E817A"/>
<circle cx="392.847" cy="47.9082" r="1.91633" fill="#6E817A"/>
<circle cx="392.847" cy="231.876" r="1.91633" fill="#6E817A"/>
<circle cx="392.847" cy="139.892" r="1.91633" fill="#6E817A"/>
<circle cx="392.847" cy="323.859" r="1.91633" fill="#6E817A"/>
<circle cx="392.847" cy="24.9122" r="1.91633" fill="#6E817A"/>
<circle cx="392.847" cy="208.88" r="1.91633" fill="#6E817A"/>
<circle cx="392.847" cy="116.896" r="1.91633" fill="#6E817A"/>
<circle cx="392.847" cy="300.863" r="1.91633" fill="#6E817A"/>
<circle cx="392.847" cy="70.9041" r="1.91633" fill="#6E817A"/>
<circle cx="392.847" cy="254.872" r="1.91633" fill="#6E817A"/>
<circle cx="392.847" cy="162.888" r="1.91633" fill="#6E817A"/>
<circle cx="392.847" cy="346.855" r="1.91633" fill="#6E817A"/>
<circle cx="415.843" cy="1.91633" r="1.91633" fill="#6E817A"/>
<circle cx="415.843" cy="185.884" r="1.91633" fill="#6E817A"/>
<circle cx="415.843" cy="93.9" r="1.91633" fill="#6E817A"/>
<circle cx="415.843" cy="277.867" r="1.91633" fill="#6E817A"/>
<circle cx="415.843" cy="47.9082" r="1.91633" fill="#6E817A"/>
<circle cx="415.843" cy="231.876" r="1.91633" fill="#6E817A"/>
<circle cx="415.843" cy="139.892" r="1.91633" fill="#6E817A"/>
<circle cx="415.843" cy="323.859" r="1.91633" fill="#6E817A"/>
<circle cx="415.843" cy="24.9122" r="1.91633" fill="#6E817A"/>
<circle cx="415.843" cy="208.88" r="1.91633" fill="#6E817A"/>
<circle cx="415.843" cy="116.896" r="1.91633" fill="#6E817A"/>
<circle cx="415.843" cy="300.863" r="1.91633" fill="#6E817A"/>
<circle cx="415.843" cy="70.9041" r="1.91633" fill="#6E817A"/>
<circle cx="415.843" cy="254.872" r="1.91633" fill="#6E817A"/>
<circle cx="415.843" cy="162.888" r="1.91633" fill="#6E817A"/>
<circle cx="415.843" cy="346.855" r="1.91633" fill="#6E817A"/>
<circle cx="300.864" cy="1.91633" r="1.91633" fill="#6E817A"/>
<circle cx="300.864" cy="185.884" r="1.91633" fill="#6E817A"/>
<circle cx="300.864" cy="93.9" r="1.91633" fill="#6E817A"/>
<circle cx="300.864" cy="277.867" r="1.91633" fill="#6E817A"/>
<circle cx="300.864" cy="47.9082" r="1.91633" fill="#6E817A"/>
<circle cx="300.864" cy="231.876" r="1.91633" fill="#6E817A"/>
<circle cx="300.864" cy="139.892" r="1.91633" fill="#6E817A"/>
<circle cx="300.864" cy="323.859" r="1.91633" fill="#6E817A"/>
<circle cx="300.864" cy="24.9122" r="1.91633" fill="#6E817A"/>
<circle cx="300.864" cy="208.88" r="1.91633" fill="#6E817A"/>
<circle cx="300.864" cy="116.896" r="1.91633" fill="#6E817A"/>
<circle cx="300.864" cy="300.863" r="1.91633" fill="#6E817A"/>
<circle cx="300.864" cy="70.9041" r="1.91633" fill="#6E817A"/>
<circle cx="300.864" cy="254.872" r="1.91633" fill="#6E817A"/>
<circle cx="300.864" cy="162.888" r="1.91633" fill="#6E817A"/>
<circle cx="300.864" cy="346.855" r="1.91633" fill="#6E817A"/>
<circle cx="369.851" cy="1.91633" r="1.91633" fill="#6E817A"/>
<circle cx="369.851" cy="185.884" r="1.91633" fill="#6E817A"/>
<circle cx="369.851" cy="93.9" r="1.91633" fill="#6E817A"/>
<circle cx="369.851" cy="277.867" r="1.91633" fill="#6E817A"/>
<circle cx="369.851" cy="47.9082" r="1.91633" fill="#6E817A"/>
<circle cx="369.851" cy="231.876" r="1.91633" fill="#6E817A"/>
<circle cx="369.851" cy="139.892" r="1.91633" fill="#6E817A"/>
<circle cx="369.851" cy="323.859" r="1.91633" fill="#6E817A"/>
<circle cx="369.851" cy="24.9122" r="1.91633" fill="#6E817A"/>
<circle cx="369.851" cy="208.88" r="1.91633" fill="#6E817A"/>
<circle cx="369.851" cy="116.896" r="1.91633" fill="#6E817A"/>
<circle cx="369.851" cy="300.863" r="1.91633" fill="#6E817A"/>
<circle cx="369.851" cy="70.9041" r="1.91633" fill="#6E817A"/>
<circle cx="369.851" cy="254.872" r="1.91633" fill="#6E817A"/>
<circle cx="369.851" cy="162.888" r="1.91633" fill="#6E817A"/>
<circle cx="369.851" cy="346.855" r="1.91633" fill="#6E817A"/>
<circle cx="70.9036" cy="1.91633" r="1.91633" fill="#6E817A"/>
<circle cx="70.9036" cy="185.884" r="1.91633" fill="#6E817A"/>
<circle cx="70.9036" cy="93.9" r="1.91633" fill="#6E817A"/>
<circle cx="70.9036" cy="277.867" r="1.91633" fill="#6E817A"/>
<circle cx="70.9036" cy="47.9082" r="1.91633" fill="#6E817A"/>
<circle cx="70.9036" cy="231.876" r="1.91633" fill="#6E817A"/>
<circle cx="70.9036" cy="139.892" r="1.91633" fill="#6E817A"/>
<circle cx="70.9036" cy="323.859" r="1.91633" fill="#6E817A"/>
<circle cx="70.9036" cy="24.9122" r="1.91633" fill="#6E817A"/>
<circle cx="70.9036" cy="208.88" r="1.91633" fill="#6E817A"/>
<circle cx="70.9036" cy="116.896" r="1.91633" fill="#6E817A"/>
<circle cx="70.9036" cy="300.863" r="1.91633" fill="#6E817A"/>
<circle cx="70.9036" cy="70.9041" r="1.91633" fill="#6E817A"/>
<circle cx="70.9036" cy="254.872" r="1.91633" fill="#6E817A"/>
<circle cx="70.9036" cy="162.888" r="1.91633" fill="#6E817A"/>
<circle cx="70.9036" cy="346.855" r="1.91633" fill="#6E817A"/>
<circle cx="1.91633" cy="1.91633" r="1.91633" fill="#6E817A"/>
<circle cx="1.91633" cy="185.884" r="1.91633" fill="#6E817A"/>
<circle cx="1.91633" cy="93.9" r="1.91633" fill="#6E817A"/>
<circle cx="1.91633" cy="277.867" r="1.91633" fill="#6E817A"/>
<circle cx="1.91633" cy="47.9082" r="1.91633" fill="#6E817A"/>
<circle cx="1.91633" cy="231.876" r="1.91633" fill="#6E817A"/>
<circle cx="1.91633" cy="139.892" r="1.91633" fill="#6E817A"/>
<circle cx="1.91633" cy="323.859" r="1.91633" fill="#6E817A"/>
<circle cx="1.91633" cy="24.9122" r="1.91633" fill="#6E817A"/>
<circle cx="1.91633" cy="208.88" r="1.91633" fill="#6E817A"/>
<circle cx="1.91633" cy="116.896" r="1.91633" fill="#6E817A"/>
<circle cx="1.91633" cy="300.863" r="1.91633" fill="#6E817A"/>
<circle cx="1.91633" cy="70.9041" r="1.91633" fill="#6E817A"/>
<circle cx="1.91633" cy="254.872" r="1.91633" fill="#6E817A"/>
<circle cx="1.91633" cy="162.888" r="1.91633" fill="#6E817A"/>
<circle cx="1.91633" cy="346.855" r="1.91633" fill="#6E817A"/>
<circle cx="116.896" cy="1.91633" r="1.91633" fill="#6E817A"/>
<circle cx="116.896" cy="185.884" r="1.91633" fill="#6E817A"/>
<circle cx="116.896" cy="93.9" r="1.91633" fill="#6E817A"/>
<circle cx="116.896" cy="277.867" r="1.91633" fill="#6E817A"/>
<circle cx="116.896" cy="47.9082" r="1.91633" fill="#6E817A"/>
<circle cx="116.896" cy="231.876" r="1.91633" fill="#6E817A"/>
<circle cx="116.896" cy="139.892" r="1.91633" fill="#6E817A"/>
<circle cx="116.896" cy="323.859" r="1.91633" fill="#6E817A"/>
<circle cx="116.896" cy="24.9122" r="1.91633" fill="#6E817A"/>
<circle cx="116.896" cy="208.88" r="1.91633" fill="#6E817A"/>
<circle cx="116.896" cy="116.896" r="1.91633" fill="#6E817A"/>
<circle cx="116.896" cy="300.863" r="1.91633" fill="#6E817A"/>
<circle cx="116.896" cy="70.9041" r="1.91633" fill="#6E817A"/>
<circle cx="116.896" cy="254.872" r="1.91633" fill="#6E817A"/>
<circle cx="116.896" cy="162.888" r="1.91633" fill="#6E817A"/>
<circle cx="116.896" cy="346.855" r="1.91633" fill="#6E817A"/>
<circle cx="47.9085" cy="1.91633" r="1.91633" fill="#6E817A"/>
<circle cx="47.9085" cy="185.884" r="1.91633" fill="#6E817A"/>
<circle cx="47.9085" cy="93.9" r="1.91633" fill="#6E817A"/>
<circle cx="47.9085" cy="277.867" r="1.91633" fill="#6E817A"/>
<circle cx="47.9085" cy="47.9082" r="1.91633" fill="#6E817A"/>
<circle cx="47.9085" cy="231.876" r="1.91633" fill="#6E817A"/>
<circle cx="47.9085" cy="139.892" r="1.91633" fill="#6E817A"/>
<circle cx="47.9085" cy="323.859" r="1.91633" fill="#6E817A"/>
<circle cx="47.9085" cy="24.9122" r="1.91633" fill="#6E817A"/>
<circle cx="47.9085" cy="208.88" r="1.91633" fill="#6E817A"/>
<circle cx="47.9085" cy="116.896" r="1.91633" fill="#6E817A"/>
<circle cx="47.9085" cy="300.863" r="1.91633" fill="#6E817A"/>
<circle cx="47.9085" cy="70.9041" r="1.91633" fill="#6E817A"/>
<circle cx="47.9085" cy="254.872" r="1.91633" fill="#6E817A"/>
<circle cx="47.9085" cy="162.888" r="1.91633" fill="#6E817A"/>
<circle cx="47.9085" cy="346.855" r="1.91633" fill="#6E817A"/>
<circle cx="93.8997" cy="1.91633" r="1.91633" fill="#6E817A"/>
<circle cx="93.8997" cy="185.884" r="1.91633" fill="#6E817A"/>
<circle cx="93.8997" cy="93.9" r="1.91633" fill="#6E817A"/>
<circle cx="93.8997" cy="277.867" r="1.91633" fill="#6E817A"/>
<circle cx="93.8997" cy="47.9082" r="1.91633" fill="#6E817A"/>
<circle cx="93.8997" cy="231.876" r="1.91633" fill="#6E817A"/>
<circle cx="93.8997" cy="139.892" r="1.91633" fill="#6E817A"/>
<circle cx="93.8997" cy="323.859" r="1.91633" fill="#6E817A"/>
<circle cx="93.8997" cy="24.9122" r="1.91633" fill="#6E817A"/>
<circle cx="93.8997" cy="208.88" r="1.91633" fill="#6E817A"/>
<circle cx="93.8997" cy="116.896" r="1.91633" fill="#6E817A"/>
<circle cx="93.8997" cy="300.863" r="1.91633" fill="#6E817A"/>
<circle cx="93.8997" cy="70.9041" r="1.91633" fill="#6E817A"/>
<circle cx="93.8997" cy="254.872" r="1.91633" fill="#6E817A"/>
<circle cx="93.8997" cy="162.888" r="1.91633" fill="#6E817A"/>
<circle cx="93.8997" cy="346.855" r="1.91633" fill="#6E817A"/>
<circle cx="24.9124" cy="1.91633" r="1.91633" fill="#6E817A"/>
<circle cx="24.9124" cy="185.884" r="1.91633" fill="#6E817A"/>
<circle cx="24.9124" cy="93.9" r="1.91633" fill="#6E817A"/>
<circle cx="24.9124" cy="277.867" r="1.91633" fill="#6E817A"/>
<circle cx="24.9124" cy="47.9082" r="1.91633" fill="#6E817A"/>
<circle cx="24.9124" cy="231.876" r="1.91633" fill="#6E817A"/>
<circle cx="24.9124" cy="139.892" r="1.91633" fill="#6E817A"/>
<circle cx="24.9124" cy="323.859" r="1.91633" fill="#6E817A"/>
<circle cx="24.9124" cy="24.9122" r="1.91633" fill="#6E817A"/>
<circle cx="24.9124" cy="208.88" r="1.91633" fill="#6E817A"/>
<circle cx="24.9124" cy="116.896" r="1.91633" fill="#6E817A"/>
<circle cx="24.9124" cy="300.863" r="1.91633" fill="#6E817A"/>
<circle cx="24.9124" cy="70.9041" r="1.91633" fill="#6E817A"/>
<circle cx="24.9124" cy="254.872" r="1.91633" fill="#6E817A"/>
<circle cx="24.9124" cy="162.888" r="1.91633" fill="#6E817A"/>
<circle cx="24.9124" cy="346.855" r="1.91633" fill="#6E817A"/>
</svg>
