<svg width="68" height="68" viewBox="0 0 68 68" fill="none" xmlns="http://www.w3.org/2000/svg">
<rect width="67.8828" height="67.8828" rx="33.9414" fill="#EEC2A0"/>
<path d="M21.1675 38.7923C20.7636 38.196 22.0035 37.9001 22.19 37.2239L20.6112 36.5018C20.4277 36.1748 20.4677 35.4231 20.5757 35.0532C21.132 33.14 19.1878 33.0069 18.9229 32.0924C18.6211 31.0508 22.622 28.4422 21.5966 25.3408C20.6186 22.3874 20.7251 19.3364 22.0465 16.3993C23.2361 21.797 26.4869 24.7164 30.2141 28.42L33.4043 31.5908C38.0829 36.8451 41.6918 42.2976 38.5534 49.4399C37.6582 51.4788 36.3754 53.1553 34.9653 54.9989C35.4476 55.2978 35.8649 55.0552 36.1031 54.663C36.4361 54.1141 36.8726 53.8063 37.3505 53.3787C39.4545 51.4951 40.8913 48.9042 41.424 46.1255C42.4789 40.6182 39.6839 35.7368 35.9374 31.872L34.1855 30.0653L31.9867 27.9258L36.1579 30.4708C40.511 33.1267 44.5697 37.2268 44.1066 42.5935C44.0163 43.6322 43.5369 44.52 43.2217 45.6002C44.6378 45.2332 45.4634 42.5181 45.456 40.9704C45.4412 38.091 44.2027 35.5652 42.3103 33.4774C40.7907 31.801 39.0269 30.5492 37.0486 29.4172L31.2232 26.0851C28.6738 24.6261 26.6615 22.5739 25.1019 20.0851C23.2553 17.1376 22.5924 13.8247 22.9638 10.3727L23.0837 7.44147C22.1826 8.64886 21.931 9.911 21.7712 11.2383L21.3984 14.3204C21.1705 16.2025 18.4805 19.7655 19.6982 24.16L20.2768 26.2463C19.2869 26.5586 18.6344 26.529 17.6327 26.3544C17.865 26.7406 18.2053 27.1282 18.5663 27.3235L19.8122 27.9968L17.9967 30.5196C17.5587 31.1277 17.0585 31.9534 17.5306 32.6873C17.9478 33.3354 18.587 33.7585 19.315 34.2424L19.059 35.7146C18.9111 36.5654 19.022 37.2002 19.895 37.653C18.8726 39.5351 20.6304 39.575 20.6171 41.4068C20.6068 42.78 21.8482 44.1486 22.986 44.1412C26.7562 44.1176 29.9922 41.1242 31.9202 43.8838C34.0183 46.8875 33.3451 51.578 32.04 55.0315C31.5798 56.7493 31.2943 58.3903 31.4112 60.1289L31.7929 60.4337C31.8684 60.4943 32.04 60.1777 32.0681 60.0948C32.3433 58.2305 32.8731 56.5333 33.5359 54.7637C35.1502 50.9772 35.7273 44.7819 32.7532 42.0076C32.0637 41.3639 31.0072 40.8313 30.0913 41.1006L26.0829 42.2754L24.0706 42.817C23.6016 42.9427 22.7966 42.9383 22.4534 42.5625C21.9044 41.9617 21.8289 41.1538 21.8038 40.377C21.7846 39.7778 21.5626 39.3738 21.1675 38.7923Z" fill="#846168"/>
<path d="M41.4755 26.4077C39.8227 25.1248 38.8846 22.4836 40.1557 20.859C40.9384 19.8587 42.091 19.2358 43.1357 18.5374L43.365 18.385C43.4301 18.3421 43.3295 18.1527 43.2452 17.9751C41.9238 17.9855 40.897 18.8067 39.987 19.8084C41.0923 17.5268 43.3547 16.2203 46.0254 15.985C45.4587 18.3465 43.7971 20.2804 41.514 21.3428C41.0938 21.5381 40.7372 21.7837 40.5137 22.2587C42.2124 22.5665 43.6669 21.8074 44.9364 20.7583C46.7801 19.2358 47.7093 16.9275 47.7122 14.4876C43.8977 14.2109 40.2785 15.8252 39.1362 19.4296C38.6035 12.2193 32.275 8.4373 25.3976 8.37219C24.9804 12.9931 27.1806 17.4158 31.2215 19.7182C32.8181 20.6281 34.5981 21.0128 36.3885 20.7406L37.2408 22.7233C38.4038 25.4296 40.4102 27.4257 42.7643 29.1805C45.7044 31.3748 48.131 33.9702 48.3692 37.7625C48.5897 39.8991 47.8321 41.9529 46.5344 43.6604L46.4856 44.017C46.4708 44.1235 46.857 44.1176 46.9413 44.0377L47.8365 43.181C50.0974 41.0177 50.3801 36.7992 48.9034 33.834C48.3514 32.7272 47.7093 31.6116 46.8037 30.7741L45.2634 29.3492L41.4755 26.4077ZM31.5308 14.7791L33.4913 16.4215C34.5877 17.3389 35.406 18.493 36.0215 19.804C30.8664 19.1233 27.4617 15.1934 26.9557 10.0383C32.8639 10.3165 37.476 14.4684 38.2336 20.242L38.3387 21.9169L37.4864 19.9712C36.7036 18.1852 35.6028 16.6079 33.9737 15.5011C33.262 15.0173 32.3905 14.5423 31.5293 14.7776L31.5308 14.7791Z" fill="#846168"/>
<path d="M28.1241 57.9405L28.5428 58.0011C28.639 58.0145 28.821 57.7614 28.7588 57.6875L28.1389 56.958C27.0099 55.6278 24.382 55.3171 24.6069 53.8196C24.7475 52.8801 24.9162 51.8798 24.6646 50.9698C24.2444 49.4428 23.2279 48.1082 21.7926 47.2959C20.4802 49.4458 20.9507 51.9361 22.5354 53.8256C20.6681 52.9511 18.058 51.649 17.6866 49.6633C17.4691 48.5047 19.5998 46.2453 17.5238 43.795C16.6671 44.2759 16.2898 45.1637 16.1167 46.0944C15.8859 47.3225 16.3668 48.4885 16.7574 49.6707C15.8829 48.7755 14.8264 47.8359 14.6385 46.556C14.455 45.3028 14.4639 44.0066 13.8499 42.8554C12.7949 40.8757 11.0015 39.433 8.82054 38.8515C8.36333 41.4261 9.15642 44.452 11.0548 46.0988C11.8301 46.7706 12.7993 47.0946 13.662 47.6539C14.5779 48.2473 15.2496 49.2342 16.019 49.9903L16.9601 50.9151L15.223 49.906C13.1219 48.6867 10.7012 48.1911 8.27455 48.7459C10.1019 51.6816 12.7475 53.0147 16.0294 52.3814C17.4839 52.1018 18.6706 52.5545 19.8765 53.2426L22.6642 54.8317L19.1455 54.3005C17.7857 54.2665 16.5236 54.7873 15.2467 55.3333C16.9616 57.0246 19.255 57.501 21.4834 56.7553L23.7265 56.1753C25.3837 56.2818 26.8841 56.7627 28.1241 57.9434V57.9405ZM13.2003 46.1684C10.9586 45.0424 9.87701 42.7948 9.80599 40.1358C12.1527 41.2589 13.8262 43.431 13.8336 46.05C13.2787 44.9447 12.8363 43.8749 11.9027 42.9753L13.2003 46.1684ZM17.1687 48.5077C16.5295 47.284 16.6523 46.1625 17.4365 45.1814C17.7325 45.726 17.7754 46.4229 17.5889 47.0636L17.1687 48.5077ZM23.0193 52.994C21.7852 51.8103 21.914 50.1901 22.2306 48.7489C23.8434 49.8113 24.2459 51.8014 23.6555 53.4423C23.4454 52.5427 23.296 51.831 22.9187 51.1282L23.0193 52.9925V52.994ZM15.5707 51.3338C13.7581 52.3045 11.0652 51.1252 10.2469 49.3896L11.9411 49.3407C13.0257 49.3097 14.06 49.8275 14.8457 50.4209L12.2948 50.3158C13.5613 50.6088 14.6148 50.7893 15.5707 51.3338ZM22.2572 55.6855C21.0143 56.3469 19.8114 56.3957 18.5803 56.3336C17.916 56.1827 17.3581 55.9489 16.8743 55.505C18.061 54.8791 19.218 54.6675 20.3692 55.1055L19.5362 55.215C19.6013 55.2993 19.9298 55.5612 20.0792 55.5686L22.2572 55.6855Z" fill="#846168"/>
<path d="M39.1961 57.9183C43.9399 54.4485 45.4846 57.4848 48.8612 57.0542C50.1929 56.8855 51.3736 56.2271 52.3828 55.3437C50.8839 54.4959 49.2829 54.0298 47.7204 54.3109L44.8809 54.8214L47.2602 53.5311C48.2087 53.0162 49.2918 52.2453 50.4193 52.2986C51.9418 52.3696 53.3963 52.744 54.9026 52.3193C56.838 51.7733 58.4123 50.4771 59.6094 48.7844C56.3438 47.9173 53.3194 48.9664 50.6767 51.0128L52.1297 49.3985C52.7689 48.6882 53.4082 47.8685 54.2545 47.4024C55.49 46.7218 56.6989 46.0618 57.5068 44.8826C58.5337 43.3822 59.309 40.5635 58.621 38.8293C55.5862 40.0175 53.3726 42.3376 53.2084 45.5795C53.1315 47.1109 52.3754 48.2147 51.1043 48.9664C51.9729 47.1435 51.9211 45.0838 50.4341 43.7077C49.2844 45.1326 49.1645 46.8387 49.8896 48.3657C50.1958 49.0108 50.181 49.8483 49.7401 50.4061L48.7191 51.6949C47.4703 52.5264 46.3547 53.2396 44.9298 53.7989C46.7512 52.1521 47.2942 49.4266 45.8856 47.2056C44.6901 47.9188 43.7786 48.9916 43.2104 50.233C42.1303 52.593 43.5389 54.4189 42.7029 54.8569L41.1803 55.6544C38.662 56.9728 37.8718 58.2986 38.7715 58.0751C38.8765 58.0485 39.0999 57.9849 39.1917 57.9183H39.1961ZM55.7667 42.9857L53.9305 45.8754C53.9571 43.2712 55.4885 41.2264 57.8737 40.1299C57.9847 41.978 57.2479 44.0051 55.7061 45.2702L54.6407 46.1447C55.0121 45.0202 55.7149 44.2152 55.7667 42.9857ZM50.295 47.7901C50.036 47.0192 49.7475 46.0855 50.5214 45.3679C50.9505 46.525 50.7625 47.6081 50.5879 48.6616L50.295 47.7901ZM43.894 53.0354L43.746 53.8241C43.4028 51.4123 43.7742 50.3543 45.5571 48.487C45.9404 49.508 45.9803 50.8056 45.3455 51.7837L44.4592 53.1494C44.6457 52.3356 44.8114 51.7999 44.8217 50.8959L43.894 53.0354ZM52.5544 51.2628L54.5697 50.6414L56.0212 50.2359C55.0299 50.159 54.185 50.3706 53.1048 50.5644C53.5946 50.0155 54.2575 49.5168 54.9884 49.468L57.9418 49.2727L56.6072 50.6399C55.6927 51.5765 53.1581 52.0796 51.6104 51.3901L53.1625 50.52L52.5544 51.2628ZM44.9934 55.6589C46.2097 55.6722 47.2735 55.7062 48.4898 55.4325C47.5961 55.1632 46.8296 55.2623 45.8486 55.2224C47.5384 54.8036 49.0314 54.6853 50.8055 55.36C49.5063 56.9032 46.9007 56.5008 44.9934 55.6589Z" fill="#846168"/>
</svg>
