<svg width="68" height="68" viewBox="0 0 68 68" fill="none" xmlns="http://www.w3.org/2000/svg">
<rect width="67.8828" height="67.8828" rx="33.9414" fill="#EEC2A0"/>
<path d="M20.2282 41.173L21.0913 40.9366C21.4421 40.8407 21.7063 40.5496 21.7206 40.2367C21.7357 39.9086 21.5414 39.5519 21.2629 39.4299C20.95 39.2928 20.5815 39.4274 20.3224 39.6478C20.0355 39.8825 19.8505 40.1441 19.8235 40.5101C19.5325 40.802 19.3062 41.12 19.1572 41.5213C18.3336 44.2529 20.6917 47.5145 22.6477 49.4292C24.4707 51.2135 26.9356 52.5638 29.4619 51.6047L30.6422 52.8751C31.4137 53.7054 32.3147 54.3498 33.3267 54.8007C30.7928 55.064 28.6173 56.14 27.962 58.6075C26.3265 58.7757 25.2152 60.2008 25.3683 61.742C25.5206 63.2799 26.9196 64.456 28.5138 64.2919C29.8994 64.1497 30.9274 62.9829 31.0175 61.668C31.1125 60.285 30.2351 59.0331 28.831 58.6773C29.2794 56.649 31.7216 55.6302 33.6565 55.6134L36.7499 55.5865C40.2537 55.6622 43.3437 53.7693 44.8042 50.5902C46.2049 47.5414 46.0307 44.0636 44.4399 41.0914C43.6323 39.5822 42.5563 38.3354 41.4138 37.0584L38.9523 34.3057C37.703 32.9084 37.0796 31.1644 36.7305 29.3111L36.1828 26.4071C35.6705 24.4444 34.6223 22.8376 33.0895 21.4377C34.5306 22.0055 35.7487 22.7602 36.9492 23.6174C37.6416 24.1112 38.2229 24.6766 38.7975 25.2974C40.9125 27.5806 41.6519 30.5612 41.1446 33.7C42.3056 31.0736 41.8076 28.0745 40.1864 25.7568C39.187 24.3274 37.8973 23.2338 36.4386 22.2748C33.7852 20.5813 30.9375 19.7392 28.4019 17.8758C25.5686 15.7928 23.7279 12.8509 22.9774 9.35034C22.8033 10.5778 23.0885 11.7395 23.5074 12.8567C24.1561 14.5864 25.2102 16.0334 26.5116 17.3239C27.5817 18.3847 28.7797 19.1385 30.0483 19.9394L32.1885 21.5706C33.7608 22.7694 34.7704 24.436 35.3298 26.3389C35.6015 27.2652 35.7429 28.1796 35.8859 29.1412C36.3444 32.2253 37.4851 33.9995 39.5319 36.2507L42.0515 39.0219C42.9761 40.039 43.6424 41.1856 44.1673 42.4568C45.2063 44.973 45.2071 47.7374 44.0857 50.2032C42.8415 52.939 40.2554 54.6484 37.247 54.7258C35.472 54.7713 33.7448 54.2934 32.3214 53.2082L31.6568 52.6143C31.1335 52.1465 30.8097 51.5013 30.4513 50.904C32.8893 48.1421 31.3598 43.95 29.5873 41.0704C29.0556 40.2064 28.4213 39.4459 27.665 38.7998C26.9087 38.1537 26.0918 37.9518 25.158 37.9123C24.6137 37.8895 23.5958 37.6876 23.4427 38.454C23.3745 38.7964 23.5234 39.1472 23.7211 39.281C24.1737 39.5872 24.9115 39.2473 25.3717 38.719C26.52 38.6231 27.7012 39.7445 28.4154 40.7356C29.4788 42.2103 30.2258 43.8533 30.6616 45.6258C30.8736 46.4873 30.9089 47.3286 30.8147 48.1976C30.6187 49.9988 29.0733 51.2438 27.2536 51.0175C24.432 50.6667 21.7879 47.7088 20.4679 45.233C19.8 43.9803 19.3617 42.3449 20.2273 41.1764L20.2282 41.173ZM27.8492 63.4439C26.8666 63.2462 26.2584 62.4689 26.2003 61.5645C26.1423 60.6602 26.6841 59.8222 27.5935 59.5286C28.4078 59.2662 29.2996 59.5606 29.7892 60.2311C30.2712 60.8915 30.3697 61.8085 29.8977 62.5278C29.4805 63.1646 28.7048 63.6164 27.8484 63.4439H27.8492Z" fill="#846168"/>
<path d="M32.127 38.9814L31.7711 41.7551C33.5134 38.3547 32.9472 34.1778 30.4453 31.3166C29.5863 30.334 28.3497 29.9411 27.1037 30.2053L24.447 30.9936C23.546 31.2611 22.6518 31.5362 21.7205 31.5496C20.981 31.5597 20.4089 31.0382 20.419 30.3096L20.4333 29.1975C20.4417 28.5556 20.1263 28.0946 19.5155 27.811C19.5483 27.3248 20.0505 27.1195 20.0203 26.8882C19.979 26.5752 19.2934 26.5416 18.914 26.0999C19.1193 25.6532 19.2707 25.3293 19.2816 24.9129C19.2959 24.4014 19.0208 24.0253 18.5792 23.8327L17.5839 23.3994C17.5133 23.3683 17.3812 23.2228 17.361 23.1479C17.2003 22.5666 20.5856 20.0949 19.7511 17.1749C19.2076 15.2728 19.3069 13.3673 20.1221 11.5384C20.6251 10.4086 21.352 9.49916 22.2101 8.45935C21.41 8.56283 20.8355 9.16349 20.3433 9.76163C19.709 10.5314 19.3161 11.4694 19.0023 12.4343C18.4875 14.0193 18.5724 15.6657 19.0259 17.243C19.3035 18.208 19.105 19.1107 18.6162 19.9553C18.1173 20.8176 17.5192 21.5722 16.8815 22.3453C16.6712 22.6002 16.5576 22.9014 16.5963 23.2505C16.6232 23.4962 16.8975 23.8175 17.1827 23.9614L18.3731 24.5612C18.6187 24.6849 18.5346 25.2528 18.4118 25.4513C18.209 25.7794 18.1055 26.0907 18.2662 26.4465C18.3714 26.6787 18.6936 26.8941 19.0368 27.0438C18.7028 27.4544 18.6448 28.1089 19.1352 28.3949C19.5239 28.6212 19.7485 28.9619 19.6821 29.4431C19.5845 30.1489 19.6173 30.9296 20.0472 31.5303C20.965 32.8132 22.9984 32.2143 24.484 31.7852L27.1626 31.0121C29.0656 30.4627 30.4411 32.2883 31.2125 33.986C31.9175 35.5381 32.2338 37.2089 32.1278 38.9823L32.127 38.9814Z" fill="#846168"/>
<path d="M47.2803 13.8998C46.19 15.3358 45.2133 16.6507 44.6564 18.3316C46.1051 18.1423 47.3636 17.4895 48.2848 16.4219C48.9435 15.595 49.275 14.6149 49.3709 13.5549C49.4508 12.6699 49.6308 11.8622 50.001 10.973C46.2691 11.4164 43.0622 14.0647 43.657 18.0405C44.5159 16.3294 45.7467 14.9085 47.2803 13.899V13.8998Z" fill="#846168"/>
<path d="M43.0866 32.3128C43.7537 31.644 44.2534 30.7934 44.5697 29.8655C45.8123 26.2169 44.0818 22.496 41.1862 20.1346C39.6567 18.8878 37.954 17.975 36.0847 17.3441L32.4353 16.1108C28.663 14.8363 25.3341 12.8197 23.3429 9.29651C23.6171 10.7275 24.4517 11.8111 25.3703 12.8416C27.1025 14.7033 29.5615 16.0006 31.9718 16.8233L35.8635 18.1517C37.3517 18.6598 38.6943 19.3497 39.9781 20.2523C44.0423 23.1085 45.4893 27.7085 43.0866 32.3128Z" fill="#846168"/>
<path d="M27.0854 5.20955C31.6232 3.76341 37.1941 4.29173 40.8133 7.48014C42.2316 8.72942 43.2025 10.343 43.5911 12.1912C43.6282 12.3671 43.7872 12.5286 43.9352 12.5168C44.0749 12.5059 44.2372 12.2871 44.217 12.1172C43.9823 10.1217 43.0241 8.36767 41.5603 6.97706C38.2541 3.83576 32.9331 2.96673 28.5291 3.97373C26.955 4.33379 25.5064 4.93025 24.268 5.92884C23.7111 6.37807 23.2122 6.89714 23.0272 7.61895C24.2563 6.49838 25.5392 5.70254 27.0854 5.20955Z" fill="#846168"/>
<path d="M38.5825 12.9746C39.3901 13.1883 39.9496 13.7671 40.5351 14.319C41.2148 15.0694 41.6994 15.8972 42.1907 16.8571C42.311 15.3823 41.8677 13.9135 40.8531 12.8232C40.0127 11.9693 38.9535 11.5226 37.801 11.2458L36.0436 10.6838C36.3944 13.7343 37.8557 16.3826 41.0188 16.7662C40.5595 15.2688 39.7569 14.0859 38.5825 12.9746Z" fill="#846168"/>
<path d="M45.8608 27.669C46.5649 27.9584 47.2951 27.8557 47.9707 27.6126C50.9496 26.5383 52.1215 22.7946 50.6787 19.8982C49.9039 18.3435 48.5705 17.6267 48.5486 18.012L48.5251 18.4217C49.7912 19.5095 50.5071 21.0414 50.4566 22.7164C50.3649 24.8095 49.0567 26.556 47.11 27.2727L45.8608 27.6698V27.669Z" fill="#846168"/>
<path d="M21.6627 19.258C21.4633 19.6096 21.2471 19.8292 20.8424 20.021C22.0353 20.7782 23.6859 20.3962 24.3926 19.1755L22.8833 19.6046C22.4694 19.7224 22.0454 19.5238 21.6627 19.2571V19.258Z" fill="#846168"/>
<path d="M41.3977 16.9359L42.2196 19.4109C42.5283 18.9692 42.3887 18.4897 42.2642 18.0396C41.8713 16.6145 41.2412 15.1684 40.0146 14.2396C40.4529 15.213 41.0721 15.9541 41.3977 16.9359Z" fill="#846168"/>
<path d="M21.1325 16.835L22.5206 16.5835C23.2466 16.7198 23.8683 16.9519 24.6279 17.2531C23.2373 15.3586 20.4763 15.8322 20.7514 16.6811C20.7808 16.7702 21.0248 16.8544 21.1325 16.8342V16.835Z" fill="#846168"/>
<path d="M43.3967 20.2364C43.3833 20.3862 43.5381 20.562 43.6718 20.5637C44.0108 18.9661 44.6157 17.5166 45.489 16.1445L45.6328 15.6986C45.0271 16.1007 44.7596 16.6476 44.4306 17.1952C43.8695 18.129 43.5019 19.0805 43.3967 20.2364Z" fill="#846168"/>
<path d="M28.433 60.0991C27.6195 59.9603 26.9666 60.5021 26.8463 61.1919C26.7092 61.9777 27.2055 62.6919 27.9694 62.8156C28.7333 62.9392 29.4063 62.4942 29.5544 61.7177C29.6864 61.0237 29.2616 60.2404 28.433 60.0991Z" fill="#846168"/>
</svg>
